<?xml version="1.0" standalone="no"?>
<!DOCTYPE svg PUBLIC "-//W3C//DTD SVG 20010904//EN"
        "http://www.w3.org/TR/2001/REC-SVG-20010904/DTD/svg10.dtd">
<svg version="1.0" xmlns="http://www.w3.org/2000/svg"
     width="512.000000pt" height="512.000000pt" viewBox="0 0 512.000000 512.000000"
     preserveAspectRatio="xMidYMid meet">

    <g transform="translate(0.000000,512.000000) scale(0.100000,-0.100000)"
       fill="#63918B" stroke="none">
        <path d="M3634 3931 c-53 -24 -109 -91 -123 -146 -6 -25 -11 -130 -11 -239 l0
-196 -1175 0 c-1162 0 -1175 0 -1195 -20 -30 -30 -27 -83 6 -109 27 -21 28
-21 1244 -21 1209 0 1217 0 1243 20 l26 21 3 260 c3 260 3 261 27 280 54 44
34 61 684 -589 474 -474 607 -613 607 -632 0 -19 -133 -158 -607 -632 -650
-650 -630 -633 -684 -589 -24 19 -24 20 -27 280 l-3 261 -26 20 c-25 19 -40
20 -350 20 l-324 0 -26 -26 c-20 -20 -24 -31 -19 -57 13 -66 18 -67 322 -67
l274 0 0 -196 c0 -109 5 -214 11 -239 14 -55 70 -122 123 -146 55 -25 135 -24
189 1 30 14 217 195 649 627 645 646 647 649 648 744 0 93 -8 103 -662 755
-662 659 -633 634 -739 634 -24 0 -62 -9 -85 -19z"/>
        <path d="M123 3325 c-76 -38 -123 -117 -123 -205 1 -74 33 -117 258 -342 l216
-218 -225 -227 c-234 -237 -249 -257 -249 -339 0 -82 49 -162 123 -199 l51
-25 1268 0 c1255 0 1268 0 1288 20 30 30 27 83 -6 109 -27 21 -27 21 -1276 21
l-1249 0 -24 25 c-27 27 -31 45 -14 78 6 12 121 132 255 267 183 185 244 252
244 270 0 18 -61 85 -244 270 -134 135 -249 255 -255 267 -17 33 -13 51 14 78
l24 25 345 0 c235 0 353 4 370 11 51 23 55 103 7 128 -13 7 -146 11 -383 11
l-364 0 -51 -25z"/>
    </g>
</svg>